HIERARCHY
ROOT Hips
{
  OFFSET 15.0529 93.0842 -4.53073
  CHANNELS 6 Xposition Yposition Zposition Zrotation Xrotation Yrotation
  JOINT ToSpine
  {
    OFFSET -2.69724 7.43032 -0.144315
    CHANNELS 3 Zrotation Xrotation Yrotation
    JOINT Spine
    {
      OFFSET -0.0310711 10.7595 1.96963
      CHANNELS 3 Zrotation Xrotation Yrotation
      JOINT Spine1
      {
        OFFSET 13.1342 3.43533 0.764692
        CHANNELS 3 Zrotation Xrotation Yrotation
        JOINT Neck
        {
          OFFSET 29.8703 7.82586 -0.130764
          CHANNELS 3 Zrotation Xrotation Yrotation
          JOINT Head
          {
            OFFSET 9.52751 0.295786 -0.907742
            CHANNELS 3 Zrotation Xrotation Yrotation
            End Site
            {
              OFFSET 16.4037 0.713936 2.7358
            }
          }
        }
        JOINT LeftShoulder
        {
          OFFSET 27.5574 4.95586 2.47156
          CHANNELS 3 Zrotation Xrotation Yrotation
          JOINT LeftArm
          {
            OFFSET 1.20734 -0.998971 20.1238
            CHANNELS 3 Zrotation Xrotation Yrotation
            JOINT LeftForeArm
            {
              OFFSET 26.8049 -0.0536703 -0.155908
              CHANNELS 3 Zrotation Xrotation Yrotation
              JOINT LeftHand
              {
                OFFSET 26.6817 0 0.320147
                CHANNELS 3 Zrotation Xrotation Yrotation
                End Site
                {
                  OFFSET 18.6119 0 0.382219
                }
              }
            }
          }
        }
        JOINT RightShoulder
        {
          OFFSET 27.5927 4.71444 -2.65209
          CHANNELS 3 Zrotation Xrotation Yrotation
          JOINT RightArm
          {
            OFFSET 2.83739 -1.17114 -18.7564
            CHANNELS 3 Zrotation Xrotation Yrotation
            JOINT RightForeArm
            {
              OFFSET 28.839 -0.0548439 1.22491
              CHANNELS 3 Zrotation Xrotation Yrotation
              JOINT RightHand
              {
                OFFSET 26.5114 0 -0.101894
                CHANNELS 3 Zrotation Xrotation Yrotation
                End Site
                {
                  OFFSET 18.2168 0 0
                }
              }
            }
          }
        }
      }
    }
  }
  JOINT LeftUpLeg
  {
    OFFSET -4.76168 -1.9167 -10.2353
    CHANNELS 3 Zrotation Xrotation Yrotation
    JOINT LeftLeg
    {
      OFFSET 2.55951 -42.0585 -8.02213
      CHANNELS 3 Zrotation Xrotation Yrotation
      JOINT LeftFoot
      {
        OFFSET 3.16357 -42.5282 -3.95426
        CHANNELS 3 Zrotation Xrotation Yrotation
        JOINT LeftToeBase
        {
          OFFSET 0.346054 -6.02161 12.8035
          CHANNELS 3 Zrotation Xrotation Yrotation
          End Site
          {
            OFFSET 0.134235 -1.35082 5.13018
          }
        }
      }
    }
  }
  JOINT RightUpLeg
  {
    OFFSET -4.94151 -1.41743 10.6446
    CHANNELS 3 Zrotation Xrotation Yrotation
    JOINT RightLeg
    {
      OFFSET -2.56294 -42.0364 -7.94377
      CHANNELS 3 Zrotation Xrotation Yrotation
      JOINT RightFoot
      {
        OFFSET -3.0952 -42.555 -4.02241
        CHANNELS 3 Zrotation Xrotation Yrotation
        JOINT RightToeBase
        {
          OFFSET -0.0828122 -6.13587 12.8035
          CHANNELS 3 Zrotation Xrotation Yrotation
          End Site
          {
            OFFSET -0.131328 -1.35082 5.13018
          }
        }
      }
    }
  }
}
MOTION
Frames:	8
Frame Time:	0.0333333
11.1851 88.955 -5.62693 53.0848 -41.4127 -5.5121 -70.1915 0 88.8779 94.6322 72.3234 -28.177 1.42716 22.7231 -0.45782 -130.651 26.6487 153.638 145.837 64.1655 -122.966 -0.0419797 -19.7241 -20.9616 -60.5354 17.7642 -163.38 28.2893 -1.11397 -91.3679 0.420957 0.000574661 0.358661 -2.96627 8.46112 49.0537 -118.183 -11.6306 72.1663 14.6727 -10.7433 54.5437 0.58676 0.00033094 0.0646654 -15.9391 29.0143 80.8665 -8.45278 66.9897 -1.95003 0.200546 -20.1032 -1.70184 4.17049 -11.2917 13.5404 -26.3761 -3.94644 57.881 4.6247 31.8189 18.137 0.56375 9.13884 -0.669969 -0.806367 -3.75086 9.39269 
11.4004 89.2484 -5.45658 53.5621 -41.3473 -6.26164 -70.1915 0 88.8779 92.5246 72.3678 -25.7886 1.44936 22.4602 -0.041791 -129.692 26.5843 155.074 145.25 63.4502 -121.649 -0.0443796 -19.435 -21.3849 -61.3378 19.368 -161.596 28.0631 -1.39505 -91.9163 0.420957 0.000574661 0.358661 -2.93743 8.58034 48.2551 -119.263 -11.8534 71.9862 15.6108 -10.1521 57.7263 0.58676 0.00033094 0.0646654 -17.7577 28.6684 82.4656 -7.9747 65.9589 -2.431 0.330938 -19.7313 -1.66489 4.37174 -11.57 13.2481 -26.9323 -4.19243 59.6916 4.87602 31.3311 17.5945 0.743773 9.26494 -0.717663 -0.558351 -4.56441 8.74047 
11.7209 89.6156 -5.2717 54.62 -41.0619 -6.77663 -70.1915 0 88.8779 91.2147 72.1301 -24.1502 1.37398 21.9812 0.245763 -128.238 26.431 155.6 145.714 63.3668 -121.136 -0.0050223 -19.0362 -21.4942 -62.1255 21.1184 -159.599 27.012 -1.70421 -92.6263 0.420957 0.000574661 0.358661 -2.9241 8.57752 48.0997 -119.863 -11.7504 72.5827 16.3122 -9.35537 60.9032 0.58676 0.00033094 0.0646654 -20.4262 28.0046 84.5468 -7.36157 64.5015 -3.08932 -0.0680501 -19.702 -1.68122 4.26803 -11.3998 13.2035 -27.8948 -4.81667 61.6083 5.06803 30.971 16.1279 1.00435 8.96806 -0.747793 -0.753996 -4.29024 9.82683 
12.0871 90.0904 -5.03263 55.8848 -40.8563 -7.45373 -70.1915 0 88.8779 90.0178 72.1355 -22.5959 1.19973 21.9392 0.0702936 -125.339 25.4192 153.198 150.11 64.835 -123.574 0.0625918 -18.7665 -21.0403 -62.7117 23.0102 -158.047 26.7741 -2.22007 -93.6824 0.420957 0.000574661 0.358661 -2.80512 7.95973 49.2765 -120.514 -10.1878 74.1243 16.8943 -8.62909 63.648 0.58676 0.00033094 0.0646654 -23.5816 27.2409 86.9683 -6.72806 62.7131 -3.85623 0.237735 -19.1548 -1.6227 4.43436 -11.6096 12.7958 -29.0839 -5.21487 64.4227 5.23224 30.2803 14.1582 0.788329 8.59261 -0.671363 -0.959783 -3.79705 10.6078 
12.4671 90.6208 -4.7621 57.3569 -40.8358 -7.89378 -70.1915 0 88.8779 87.9972 72.0827 -20.0897 1.57448 21.5699 0.563855 -124.036 24.716 153.334 152.958 65.0445 -125.344 0.108531 -18.3014 -21.1542 -64.4642 24.2656 -155.797 26.3581 -2.49567 -94.3073 0.420957 0.000574661 0.358661 -2.74666 7.97814 48.4992 -122.008 -10.4105 74.9278 18.4635 -8.33312 66.4508 0.58676 0.00033094 0.0646654 -27.0712 26.5149 89.1951 -6.06326 60.5499 -4.558 0.524513 -18.6397 -1.56981 4.37636 -11.4808 12.5073 -30.6509 -5.15414 67.8654 5.39647 29.0845 11.4533 1.38723 8.0419 -0.745739 -1.36442 -2.72868 11.7882 
12.8845 91.1188 -4.48053 58.4496 -40.5612 -8.34734 -70.1915 0 88.8779 86.6155 71.9402 -17.5002 1.46679 21.2995 0.782803 -122.196 24.5002 153.425 154.828 65.5283 -125.842 0.109545 -18.2298 -21.2521 -65.2665 25.613 -153.69 25.5734 -2.64608 -94.7926 0.420957 0.000574661 0.358661 -2.60827 7.83141 47.4289 -123.385 -10.6962 75.2466 19.4514 -7.59402 69.3805 0.58676 0.00033094 0.0646654 -30.1124 25.6698 91.3212 -5.47286 58.3379 -5.25596 -0.148563 -18.9007 -1.61632 3.95305 -10.7336 12.0714 -31.9747 -5.14913 71.1801 5.53932 27.9915 9.30749 1.88816 7.6552 -0.810379 -1.42712 -1.78981 10.8409 
13.3117 91.6509 -4.20002 59.3493 -40.1685 -9.06961 -70.1915 0 88.8779 83.9423 71.748 -13.4707 1.94894 21.0209 0.744428 -121.305 24.6771 153.718 157.387 66.4352 -127.581 0.150993 -17.8328 -21.3342 -66.1629 26.7625 -152.208 25.5413 -2.86788 -95.2534 0.420957 0.000574661 0.358661 -2.53954 8.007 45.8869 -125.225 -11.3193 75.3642 20.5586 -6.87914 72.167 0.58676 0.00033094 0.0646654 -32.9504 24.3057 93.0591 -5.07459 56.0737 -6.50961 0.335117 -18.0969 -1.53465 3.99267 -11.0535 13.8349 -33.1875 -5.50965 73.8344 5.3593 26.9951 7.8269 2.33245 7.52031 -0.884644 -1.4175 -1.60946 10.5317 
13.805 92.0893 -3.98218 60.2185 -39.8217 -9.62289 -70.1915 0 88.8779 81.0522 71.7256 -9.52544 2.56264 20.7261 1.4915 -121.142 25.1589 153.757 159.74 67.5573 -129.652 0.189539 -17.5868 -21.1877 -66.4469 28.7756 -151.475 25.892 -3.14451 -95.7194 0.420957 0.000574661 0.358661 -2.39076 8.08822 43.7818 -126.858 -11.9652 75.5077 20.8021 -5.80378 74.9587 0.58676 0.00033094 0.0646654 -35.5613 22.9468 94.4366 -4.64597 53.8538 -6.92303 1.03924 -17.3391 -1.45523 4.0676 -11.2149 14.0538 -34.4062 -5.69532 76.3677 4.96217 25.9678 6.08404 2.38974 7.43926 -0.88768 -1.56741 -1.64257 11.5328 
